<?xml version="1.0" encoding="UTF-8"?>
<svg version="1.1" xmlns="http://www.w3.org/2000/svg" width="1254" height="1254">
<path d="M0 0 C0.86753906 0.44730469 1.73507812 0.89460938 2.62890625 1.35546875 C12.74667392 6.9798016 19.11219942 14.46671547 24 25 C24 26.32 24 27.64 24 29 C25.31084061 28.99333817 26.62168121 28.98667633 27.97224426 28.97981262 C40.40144185 28.91866621 52.83060841 28.87386768 65.25992298 28.84456348 C71.64803714 28.82899087 78.03602866 28.80790826 84.42407227 28.77368164 C90.60328544 28.74078583 96.78238158 28.72308402 102.96167564 28.71536827 C105.30445889 28.70987849 107.64723664 28.69916059 109.98996925 28.68280983 C127.41691483 28.56615689 144.37663996 29.39181748 161.125 34.6875 C161.94500488 34.94168701 162.76500977 35.19587402 163.60986328 35.45776367 C177.48948483 39.93121684 190.12589444 46.58326298 202 55 C202.81186768 55.56847656 202.81186768 55.56847656 203.64013672 56.1484375 C222.51002979 69.56502715 237.87413733 87.08070214 251 106 C251.62213379 106.89509277 252.24426758 107.79018555 252.88525391 108.71240234 C257.30977136 115.10612895 261.66079506 121.54821005 266 128 C273.36805179 138.92835658 280.82887444 149.65477139 289 160 C290.12504482 161.47913258 291.25004826 162.95829663 292.375 164.4375 C301.77996107 176.44522936 312.0877277 187.35606226 323 198 C323.71027344 197.71253906 324.42054688 197.42507813 325.15234375 197.12890625 C327.94206026 196.02296925 330.74424502 194.96837769 333.5625 193.9375 C334.49191406 193.59589844 335.42132812 193.25429688 336.37890625 192.90234375 C349.3898981 188.42314984 365.39146536 189.31680309 377.765625 195.16015625 C393.1556954 203.91465282 403.9647579 215.1471755 409.2734375 232.2734375 C412.67114064 245.0239579 411.97017248 257.78710907 407 270 C406.649375 270.87011719 406.29875 271.74023438 405.9375 272.63671875 C399.12637569 287.70160133 387.19422412 297.21275629 372 303 C366.49389721 304.88592263 361.62817103 305.3520767 355.875 305.3125 C355.04186279 305.30831055 354.20872559 305.30412109 353.3503418 305.29980469 C344.55620959 305.14051219 336.29098258 303.89249631 328.4375 299.75 C325.3352113 297.77065499 325.3352113 297.77065499 322.97192383 298.23803711 C319.62228667 299.53235648 317.24846866 302.12144415 314.6875 304.5625 C314.10572998 305.10970703 313.52395996 305.65691406 312.92456055 306.22070312 C308.66687261 310.26690663 304.73073446 314.46193121 301 319 C300.27941406 319.83273437 299.55882812 320.66546875 298.81640625 321.5234375 C293.93478694 327.22516885 289.37732485 333.0906075 284.98828125 339.17578125 C284.42662766 339.95418869 283.86497406 340.73259613 283.28630066 341.53459167 C276.2991964 351.28752469 269.73443016 361.31946619 263.14868164 371.34545898 C256.44497205 381.53836623 249.60886252 391.45845158 242 401 C241.27804443 401.92208252 240.55608887 402.84416504 239.81225586 403.79418945 C235.13157727 409.76953679 230.17612716 415.44979978 225 421 C224.26394531 421.80179688 223.52789063 422.60359375 222.76953125 423.4296875 C200.10466223 447.19553006 165.20177183 465.20335491 132.13549805 466.25912476 C125.1838361 466.38345665 118.23348693 466.33811993 111.28125 466.29296875 C108.72579194 466.28736252 106.17033062 466.28309728 103.61486816 466.28010559 C97.61938385 466.26989418 91.62410104 466.24634818 85.62869692 466.21605712 C78.79172051 466.1822795 71.95473517 466.165969 65.11769581 466.15097082 C51.07837148 466.11978994 37.03919503 466.0671771 23 466 C22.69457275 466.94762207 22.38914551 467.89524414 22.07446289 468.87158203 C18.98162713 477.87671665 10.90834721 485.28687282 2.7421875 489.80078125 C-9.35423428 495.57344723 -23.51267021 497.32670244 -36.6953125 494.09375 C-50.20482201 488.70376667 -60.71671787 478.54379849 -66.75 465.375 C-70.85053234 454.30356267 -71.07387779 438.15131284 -66.26953125 427.3203125 C-64.09272765 423.34178531 -61.71725285 419.6301357 -59 416 C-58.2575 414.96875 -57.515 413.9375 -56.75 412.875 C-48.17034915 403.90536502 -37.04110252 398.64353238 -24.65234375 397.76171875 C-9.61808889 397.46134983 2.53241109 401.94426737 13.75 412.1875 C18.74543532 417.50951342 24 424.58565802 24 432 C37.91838975 431.962621 51.8365218 431.90219654 65.75469875 431.81609726 C72.2190438 431.77676313 78.68325547 431.74450594 85.14770508 431.72900391 C91.39839656 431.7137444 97.64872104 431.67913539 103.89924812 431.63169098 C106.27154392 431.6169725 108.64389214 431.60896453 111.01623344 431.60811615 C146.7397048 431.58251731 175.98295879 419.57015064 201.56787109 394.45507812 C215.62122147 380.17652916 226.51005167 362.88087728 237.515625 346.25390625 C245.94509715 333.52257778 254.46701055 320.9362641 264 309 C264.73605469 308.07058594 265.47210937 307.14117188 266.23046875 306.18359375 C274.12246104 296.36399981 282.68596572 287.23696003 291.5625 278.3125 C292.17053467 277.69979248 292.77856934 277.08708496 293.4050293 276.45581055 C297.75370506 272.12314747 297.75370506 272.12314747 300 271 C300 269.02 300 267.04 300 265 C208.59 265 117.18 265 23 265 C22.34 266.98 21.68 268.96 21 271 C14.61853262 281.87288232 4.48708202 288.41552758 -7 293 C-23.95671851 296.30448301 -37.88664401 293.48188475 -52 284 C-58.60464529 278.8525701 -62.55572959 272.56451912 -66 265 C-66.34160156 264.26652344 -66.68320312 263.53304688 -67.03515625 262.77734375 C-70.9842154 252.36284823 -70.66798017 238.25386067 -66.9375 227.875 C-61.43327422 215.88529371 -53.23090594 205.71063624 -40.75 200.5625 C-39.17297655 200.02286229 -37.5901363 199.49967825 -36 199 C-34.39125 198.38125 -34.39125 198.38125 -32.75 197.75 C-19.48237565 195.09647513 -6.30771696 197.32919107 5.33203125 204.1484375 C13.68955444 209.94853412 20.25591399 217.47236649 24 227 C24 228.32 24 229.64 24 231 C115.08 231 206.16 231 300 231 C300.5857835 225.32874374 300.5857835 225.32874374 298.30688477 222.6574707 C297.52627686 221.92101318 296.74566895 221.18455566 295.94140625 220.42578125 C294.6562915 219.18538086 294.6562915 219.18538086 293.34521484 217.91992188 C292.42691895 217.05947266 291.50862305 216.19902344 290.5625 215.3125 C288.70874953 213.52053044 286.85843724 211.72499678 285.01171875 209.92578125 C284.13177246 209.07064941 283.25182617 208.21551758 282.34521484 207.33447266 C278.1687991 203.17718686 274.60440522 198.65630307 271 194 C269.42034809 192.14269596 267.83676743 190.28872867 266.25 188.4375 C253.59661343 173.26125892 242.77604722 156.54588321 231.75 140.17578125 C208.72624859 106.08817454 182.79282131 74.64869317 140.52523804 65.46212769 C129.0320128 63.41795088 117.42977167 63.51538177 105.7890625 63.3828125 C104.64026989 63.36966885 103.49147728 63.35652519 102.30787277 63.34298325 C96.2438727 63.27821092 90.17993756 63.22917599 84.11572266 63.18994141 C79.1101383 63.15414169 74.106771 63.0841807 69.10205078 62.98486328 C63.03079861 62.86458879 56.96161916 62.80302086 50.88923264 62.78359604 C48.58375145 62.76649084 46.27832574 62.72886108 43.97352982 62.6701088 C31.71932291 61.78370885 31.71932291 61.78370885 21.16546631 66.58441162 C19.26013573 69.68499681 19.26013573 69.68499681 18.16586304 72.94259644 C14.99383604 81.26104066 5.7226132 86.29170808 -2 89.84765625 C-14.89644973 94.80137066 -29.38047205 94.59360199 -42 89 C-55.08672411 81.67322515 -63.24351292 72.02447294 -68.078125 57.8359375 C-71.16541897 44.98965496 -70.08944097 30.49006066 -63.26953125 19.11328125 C-49.44959468 -1.10630658 -23.11945163 -12.42526269 0 0 Z " fill="#121212" transform="translate(420,354)"/>
<path d="M0 0 C-0.33 0.99 -0.66 1.98 -1 3 C-2.64548828 3.09087891 -2.64548828 3.09087891 -4.32421875 3.18359375 C-5.77865654 3.26804498 -7.23308305 3.35269066 -8.6875 3.4375 C-9.40873047 3.47681641 -10.12996094 3.51613281 -10.87304688 3.55664062 C-14.66707282 3.78185678 -18.28651492 4.12839305 -22 5 C-22.33 4.01 -22.66 3.02 -23 2 C-15.39701733 -0.48260659 -7.89688807 -0.18508331 0 0 Z " fill="#212222" transform="translate(407,752)"/>
<path d="M0 0 C0.66 0.33 1.32 0.66 2 1 C-2.8836671 6.90436923 -8.1719243 12.03093773 -14 17 C-14.66 16.67 -15.32 16.34 -16 16 C-10.72 10.72 -5.44 5.44 0 0 Z " fill="#1D1D1D" transform="translate(718,626)"/>
<path d="M0 0 C0.84755859 0.04833984 1.69511719 0.09667969 2.56835938 0.14648438 C3.44943359 0.20255859 4.33050781 0.25863281 5.23828125 0.31640625 C6.13095703 0.36861328 7.02363281 0.42082031 7.94335938 0.47460938 C10.14619685 0.60418805 12.34856998 0.73914871 14.55078125 0.87890625 C14.55078125 1.20890625 14.55078125 1.53890625 14.55078125 1.87890625 C12.90529297 1.96978516 12.90529297 1.96978516 11.2265625 2.0625 C9.77212471 2.14695123 8.3176982 2.23159691 6.86328125 2.31640625 C6.14205078 2.35572266 5.42082031 2.39503906 4.67773438 2.43554688 C0.88370843 2.66076303 -2.73573367 3.0072993 -6.44921875 3.87890625 C-6.77921875 2.88890625 -7.10921875 1.89890625 -7.44921875 0.87890625 C-4.52252184 -0.09665939 -3.00860554 -0.18172785 0 0 Z " fill="#1A1A1A" transform="translate(391.44921875,753.12109375)"/>
<path d="M0 0 C0 0.66 0 1.32 0 2 C-3.61973402 3.31626692 -6.09567131 4 -10 4 C-10 4.66 -10 5.32 -10 6 C-10.66 6 -11.32 6 -12 6 C-12 5.01 -12 4.02 -12 3 C-7.77050005 0.58314288 -4.87664009 -0.34833144 0 0 Z " fill="#202120" transform="translate(758,548)"/>
<path d="M0 0 C0.33 0.99 0.66 1.98 1 3 C-1.57784846 5.64752004 -3.91648098 7.94432065 -7 10 C-7.33 9.34 -7.66 8.68 -8 8 C-7.04578192 6.85073734 -6.08647955 5.70569459 -5.125 4.5625 C-4.59132813 3.92441406 -4.05765625 3.28632812 -3.5078125 2.62890625 C-2 1 -2 1 0 0 Z " fill="#272727" transform="translate(368,562)"/>
<path d="M0 0 C0.66 0.66 1.32 1.32 2 2 C0.42466914 2.86883706 -1.16064509 3.71959068 -2.75 4.5625 C-3.63171875 5.03816406 -4.5134375 5.51382813 -5.421875 6.00390625 C-8 7 -8 7 -12 6 C-8.04 4.02 -4.08 2.04 0 0 Z " fill="#2B2B2C" transform="translate(595,770)"/>
<path d="M0 0 C-3.58614213 3.58614213 -7.03315232 4.32270259 -12 5 C-5.5 -1.96428571 -5.5 -1.96428571 0 0 Z " fill="#242525" transform="translate(382,757)"/>
<path d="M0 0 C0 0.66 0 1.32 0 2 C-1.62324086 2.22162329 -3.248721 2.42689803 -4.875 2.625 C-6.23238281 2.79902344 -6.23238281 2.79902344 -7.6171875 2.9765625 C-8.40351562 2.98429688 -9.18984375 2.99203125 -10 3 C-10.66 2.34 -11.32 1.68 -12 1 C-7.9472484 0.01751476 -4.16138263 -0.08159574 0 0 Z " fill="#171818" transform="translate(565,784)"/>
<path d="M0 0 C0 0.99 0 1.98 0 3 C-3.465 4.485 -3.465 4.485 -7 6 C-7.66 5.34 -8.32 4.68 -9 4 C-2.25 0 -2.25 0 0 0 Z " fill="#272727" transform="translate(381,353)"/>
<path d="M0 0 C2.04296875 0.4609375 2.04296875 0.4609375 4.1875 1.375 C4.90292969 1.67148437 5.61835937 1.96796875 6.35546875 2.2734375 C7.16951172 2.63308594 7.16951172 2.63308594 8 3 C6.4375 4.1875 6.4375 4.1875 4 5 C0.25 3.625 0.25 3.625 -3 2 C-2.01 1.34 -1.02 0.68 0 0 Z " fill="#191919" transform="translate(793,548)"/>
<path d="M0 0 C0.33 0.66 0.66 1.32 1 2 C-0.65 3.98 -2.3 5.96 -4 8 C-4.99 7.67 -5.98 7.34 -7 7 C-4.69 4.69 -2.38 2.38 0 0 Z " fill="#1F1F20" transform="translate(368,360)"/>
<path d="M0 0 C3.36720387 1.39332574 4.9859524 2.9789286 7 6 C4 6 4 6 1.8125 4.125 C0 2 0 2 0 0 Z " fill="#2F2F2F" transform="translate(715,572)"/>
<path d="M0 0 C2.31 1.98 4.62 3.96 7 6 C6.34 6.66 5.68 7.32 5 8 C0 2.25 0 2.25 0 0 Z " fill="#272827" transform="translate(699,555)"/>
<path d="M0 0 C-2.96687001 1.64826111 -5.65626525 2.44271087 -9 3 C-9.33 2.01 -9.66 1.02 -10 0 C-6.42355152 -1.2380014 -3.66305234 -0.74926071 0 0 Z " fill="#232323" transform="translate(390,554)"/>
<path d="M0 0 C4.455 1.98 4.455 1.98 9 4 C9 4.33 9 4.66 9 5 C5.625 4.75 5.625 4.75 2 4 C1.34 2.68 0.68 1.36 0 0 Z " fill="#181818" transform="translate(417,353)"/>
<path d="M0 0 C2.5 2.3125 2.5 2.3125 5 5 C5 5.99 5 6.98 5 8 C2.5 5.6875 2.5 5.6875 0 3 C0 2.01 0 1.02 0 0 Z " fill="#222222" transform="translate(722,531)"/>
</svg>
